<?xml version="1.0" encoding="UTF-8" standalone="no"?>
<svg width="183px" height="215px" viewBox="0 0 183 215" version="1.1" xmlns="http://www.w3.org/2000/svg" xmlns:xlink="http://www.w3.org/1999/xlink">
    <!-- Generator: sketchtool 41.1 (35376) - http://www.bohemiancoding.com/sketch -->
    <title>40DAD7E7-3656-4F9A-8304-07DF709DDF42</title>
    <desc>Created with sketchtool.</desc>
    <defs></defs>
    <g id="Page-1" stroke="none" stroke-width="1" fill="none" fill-rule="evenodd">
        <g id="leaderboard_1" transform="translate(-1482.000000, -333.000000)" fill="#F6A623">
            <g id="Group-5" transform="translate(-47.000000, -220.000000)">
                <g id="Group-2" transform="translate(1356.000000, 515.000000)">
                    <g id="Group-4" transform="translate(47.068995, 38.651632)">
                        <g id="premium-badge" transform="translate(125.414543, 0.000000)">
                            <g id="Layer_5_21_">
                                <g id="Group">
                                    <path d="M182.098775,181.381149 C182.098775,181.381149 158.406228,140.659636 154.156441,133.356208 C158.991749,131.8811 164.142604,130.578482 166.282784,126.882925 C169.849559,120.725201 163.50055,110.623856 165.167698,104.023657 C166.885034,97.2307771 177.022913,91.3528445 177.022913,84.4480477 C177.022913,77.720933 166.541798,69.8619601 164.823308,63.1088853 C163.144622,56.5098402 169.474595,46.3975348 165.896283,40.2473101 C162.31797,34.0965086 150.3993,34.6018643 145.493038,29.8805962 C140.444865,25.0220284 140.460441,13.1346323 134.371599,9.87866495 C128.257952,6.6105829 118.321977,13.2153969 111.533971,11.6508711 C104.823265,10.104229 98.8278758,0 91.8183524,0 C84.7049928,0 73.3908803,11.4616512 71.6164343,11.8741276 C64.8318895,13.4513449 54.8832236,6.86268385 48.7759218,10.1446113 C42.6928486,13.4115395 42.730345,25.3000893 37.6914028,30.1667337 C32.7932164,34.8966551 20.8739694,34.4132212 17.3066175,40.5709454 C13.7398425,46.7275159 20.088852,56.8265528 18.4222803,63.4302131 C16.7510936,70.0506031 6.26017177,76.7586804 6.26017177,84.4151649 C6.26017177,91.3205387 16.4234326,97.1800107 18.1511523,103.96943 C19.8304151,110.568475 13.5004423,120.679626 17.0787547,126.832159 C19.026838,130.181005 23.4468007,131.555734 27.8609948,132.877389 C28.376138,133.031419 29.3504681,133.607732 28.6905311,134.569408 C25.670627,139.782186 1.36429287,181.733052 1.36429287,181.733052 C-0.569368737,185.069784 1.00086602,187.930005 4.8526138,188.092111 L23.7063914,188.878412 C27.5581391,189.040518 32.3899857,191.839589 34.4459433,195.100748 L44.5065216,211.065603 C46.5624792,214.326762 49.8246679,214.265612 51.7577526,210.929457 C51.7577526,210.929457 79.9071815,162.328779 79.9187189,162.314934 C80.4834727,161.654972 81.0511108,161.790541 81.3228156,162.021297 C84.402714,164.643839 88.6963427,167.260035 92.2798468,167.260035 C95.7941268,167.260035 99.0482393,164.797292 102.267163,162.050718 C102.529061,161.827462 103.1665,161.369988 103.63261,162.319549 C103.640109,162.334548 131.758387,210.66928 131.758387,210.66928 C133.696663,214.001396 136.959429,214.057932 139.009041,210.792734 L149.041353,194.808842 C151.091542,191.545375 155.918196,188.735344 159.769944,188.567469 L178.621991,187.745977 C182.472008,187.576948 184.037051,184.712689 182.098775,181.381149 L182.098775,181.381149 Z M122.976725,137.663846 C102.131022,149.791805 77.1093716,148.492072 57.997734,136.436801 C29.9936759,118.498405 20.779363,81.3905305 37.6141025,52.3331564 C54.640939,22.9406091 92.0698669,12.5692801 121.726075,28.7216241 C121.881829,28.806427 122.035853,28.8941143 122.190454,28.9806478 C122.41024,29.1023716 122.62945,29.225826 122.848083,29.3504343 C131.99721,34.6255168 139.930876,42.2814244 145.611872,52.046442 C162.974446,81.8924248 152.820992,120.30061 122.976725,137.663846 L122.976725,137.663846 Z" id="Shape"></path>
                                </g>
                            </g>
                        </g>
                    </g>
                </g>
            </g>
        </g>
    </g>
</svg>